HIERARCHY
ROOT hip
{
  OFFSET 0 0 0
  CHANNELS 6 Xposition Yposition Zposition Zrotation Yrotation Xrotation
  JOINT abdomen
  {
    OFFSET 0 20.6881 -0.73152
    CHANNELS 3 Zrotation Xrotation Yrotation
    JOINT chest
    {
      OFFSET 0 11.7043 -0.48768
      CHANNELS 3 Zrotation Xrotation Yrotation
      JOINT neck
      {
        OFFSET 0 22.1894 -2.19456
        CHANNELS 3 Zrotation Xrotation Yrotation
        JOINT head
        {
          OFFSET -0.24384 7.07133 1.2192
          CHANNELS 3 Zrotation Xrotation Yrotation
          JOINT leftEye
          {
            OFFSET 4.14528 8.04674 8.04672
            CHANNELS 3 Zrotation Xrotation Yrotation
            End Site
            {
              OFFSET 1 0 0
            }
          }
          JOINT rightEye
          {
            OFFSET -3.6576 8.04674 8.04672
            CHANNELS 3 Zrotation Xrotation Yrotation
            End Site
            {
              OFFSET 1 0 0
            }
          }
        }
      }
      JOINT rCollar
      {
        OFFSET -2.68224 19.2634 -4.8768
        CHANNELS 3 Zrotation Xrotation Yrotation
        JOINT rShldr
        {
          OFFSET -8.77824 -1.95073 1.46304
          CHANNELS 3 Zrotation Xrotation Yrotation
          JOINT rForeArm
          {
            OFFSET -28.1742 -1.7115 0.48768
            CHANNELS 3 Zrotation Xrotation Yrotation
            JOINT rHand
            {
              OFFSET -22.5879 0.773209 7.07136
              CHANNELS 3 Zrotation Xrotation Yrotation
              JOINT rThumb1
              {
                OFFSET -1.2192 -0.487915 3.41376
                CHANNELS 3 Zrotation Xrotation Yrotation
                JOINT rThumb2
                {
                  OFFSET -3.37035 -0.52449 3.41376
                  CHANNELS 3 Zrotation Xrotation Yrotation
                  End Site
                  {
                    OFFSET -1.78271 -1.18214 1.43049
                  }
                }
              }
              JOINT rIndex1
              {
                OFFSET -7.75947 0.938293 5.60832
                CHANNELS 3 Zrotation Xrotation Yrotation
                JOINT rIndex2
                {
                  OFFSET -2.54057 -0.884171 1.56538
                  CHANNELS 3 Zrotation Xrotation Yrotation
                  End Site
                  {
                    OFFSET -1.62519 -0.234802 1.16502
                  }
                }
              }
              JOINT rMid1
              {
                OFFSET -8.24714 1.18213 3.41376
                CHANNELS 3 Zrotation Xrotation Yrotation
                JOINT rMid2
                {
                  OFFSET -3.10165 -0.590103 1.0647
                  CHANNELS 3 Zrotation Xrotation Yrotation
                  End Site
                  {
                    OFFSET -2.48547 -0.328903 0.83742
                  }
                }
              }
              JOINT rRing1
              {
                OFFSET -8.82822 0.546677 1.51678
                CHANNELS 3 Zrotation Xrotation Yrotation
                JOINT rRing2
                {
                  OFFSET -2.60934 -0.819778 -0.0198488
                  CHANNELS 3 Zrotation Xrotation Yrotation
                  End Site
                  {
                    OFFSET -2.33842 -0.294052 0.168128
                  }
                }
              }
              JOINT rPinky1
              {
                OFFSET -8.27202 -0.0477905 -0.4584
                CHANNELS 3 Zrotation Xrotation Yrotation
                JOINT rPinky2
                {
                  OFFSET -1.82734 -0.647385 -0.700984
                  CHANNELS 3 Zrotation Xrotation Yrotation
                  End Site
                  {
                    OFFSET -1.69225 -0.51767 -0.607171
                  }
                }
              }
            }
          }
        }
      }
      JOINT lCollar
      {
        OFFSET 2.68224 19.2634 -4.8768
        CHANNELS 3 Zrotation Xrotation Yrotation
        JOINT lShldr
        {
          OFFSET 8.77824 -1.95073 1.46304
          CHANNELS 3 Zrotation Xrotation Yrotation
          JOINT lForeArm
          {
            OFFSET 28.1742 -1.7115 0.48768
            CHANNELS 3 Zrotation Xrotation Yrotation
            JOINT lHand
            {
              OFFSET 22.5879 0.773209 7.07136
              CHANNELS 3 Zrotation Xrotation Yrotation
              JOINT lThumb1
              {
                OFFSET 1.2192 -0.487915 3.41376
                CHANNELS 3 Zrotation Xrotation Yrotation
                JOINT lThumb2
                {
                  OFFSET 3.37035 -0.52449 3.41376
                  CHANNELS 3 Zrotation Xrotation Yrotation
                  End Site
                  {
                    OFFSET 1.78271 -1.18214 1.43049
                  }
                }
              }
              JOINT lIndex1
              {
                OFFSET 7.75947 0.938293 5.60832
                CHANNELS 3 Zrotation Xrotation Yrotation
                JOINT lIndex2
                {
                  OFFSET 2.54057 -0.884171 1.56538
                  CHANNELS 3 Zrotation Xrotation Yrotation
                  End Site
                  {
                    OFFSET 1.62519 -0.234802 1.16502
                  }
                }
              }
              JOINT lMid1
              {
                OFFSET 8.24714 1.18213 3.41376
                CHANNELS 3 Zrotation Xrotation Yrotation
                JOINT lMid2
                {
                  OFFSET 3.10165 -0.590103 1.0647
                  CHANNELS 3 Zrotation Xrotation Yrotation
                  End Site
                  {
                    OFFSET 2.48547 -0.328903 0.83742
                  }
                }
              }
              JOINT lRing1
              {
                OFFSET 8.82822 0.546677 1.51678
                CHANNELS 3 Zrotation Xrotation Yrotation
                JOINT lRing2
                {
                  OFFSET 2.60934 -0.819778 -0.0198488
                  CHANNELS 3 Zrotation Xrotation Yrotation
                  End Site
                  {
                    OFFSET 2.33842 -0.294052 0.168128
                  }
                }
              }
              JOINT lPinky1
              {
                OFFSET 8.27202 -0.0477905 -0.4584
                CHANNELS 3 Zrotation Xrotation Yrotation
                JOINT lPinky2
                {
                  OFFSET 1.82734 -0.647385 -0.700984
                  CHANNELS 3 Zrotation Xrotation Yrotation
                  End Site
                  {
                    OFFSET 1.69225 -0.51767 -0.607171
                  }
                }
              }
            }
          }
        }
      }
    }
  }
  JOINT rButtock
  {
    OFFSET -8.77824 4.35084 1.2192
    CHANNELS 3 Zrotation Xrotation Yrotation
    JOINT rThigh
    {
      OFFSET 0 -1.70687 -2.19456
      CHANNELS 3 Zrotation Xrotation Yrotation
      JOINT rShin
      {
        OFFSET 0 -36.8199 0.73152
        CHANNELS 3 Zrotation Xrotation Yrotation
        JOINT rFoot
        {
          OFFSET 0.73152 -45.1104 -5.12064
          CHANNELS 3 Zrotation Xrotation Yrotation
          End Site
          {
            OFFSET -1.1221 -3.69964 12.103
          }
        }
      }
    }
  }
  JOINT lButtock
  {
    OFFSET 8.77824 4.35084 1.2192
    CHANNELS 3 Zrotation Xrotation Yrotation
    JOINT lThigh
    {
      OFFSET 0 -1.70687 -2.19456
      CHANNELS 3 Zrotation Xrotation Yrotation
      JOINT lShin
      {
        OFFSET 0 -36.8199 0.73152
        CHANNELS 3 Zrotation Xrotation Yrotation
        JOINT lFoot
        {
          OFFSET -0.73152 -45.1104 -5.12064
          CHANNELS 3 Zrotation Xrotation Yrotation
          End Site
          {
            OFFSET 1.1221 -3.69964 12.103
          }
        }
      }
    }
  }
}
MOTION
Frames:	7
Frame Time:	0.03333
0.0 0.0 0.0 0.0 0.0 0.0 0.0 0.0 0.0 0.0 0.0 0.0 0.0 0.0 0.0 0.0 0.0 0.0 0.0 0.0 0.0 0.0 0.0 0.0 0.0 0.0 0.0 0.0 0.0 0.0 0.0 0.0 0.0 0.0 0.0 0.0 0.0 0.0 0.0 0.0 0.0 0.0 0.0 0.0 0.0 0.0 0.0 0.0 0.0 0.0 0.0 0.0 0.0 0.0 0.0 0.0 0.0 0.0 0.0 0.0 0.0 0.0 0.0 0.0 0.0 0.0 0.0 0.0 0.0 0.0 0.0 0.0 0.0 0.0 0.0 0.0 0.0 0.0 0.0 0.0 0.0 0.0 0.0 0.0 0.0 0.0 0.0 0.0 0.0 0.0 0.0 0.0 0.0 0.0 0.0 0.0 0.0 0.0 0.0 0.0 0.0 0.0 0.0 0.0 0.0 0.0 0.0 0.0 0.0 0.0 0.0 0.0 0.0 0.0 0.0 0.0 0.0 0.0 0.0 0.0 0.0 0.0 0.0 0.0 0.0 0.0 0.0 0.0 0.0 0.0 0.0 0.0
-0.1727 63.302800000000005 -0.021 173.65204 81.54166 172.824245 -1.196133 2.640815 -0.0 -9.825252 -5.922277 113.075619 -9.299298 -11.226131 -88.963965 42.497987 24.350677 101.136255 166.364007 6.935784 -53.756707 -171.516301 -5.961875 -70.144926 -94.163051 -50.915941 160.452276 -147.415052 59.627076 151.822838 179.735624 72.390251 -38.941377 -3.680653 20.8265 -51.994451 170.76274 2.134688 63.730121 -31.940286 65.830135 -145.565136 -72.442147 42.446316 -101.236975 165.770965 -62.466651 -1.678856 108.456331 -11.638165 -151.139565 116.223937 26.592968 95.121733 85.418297 19.519401 -82.14279 -27.331299 70.569817 49.306062 171.652597 25.941062 -66.829825 -134.62645 34.20189 -140.342823 -50.090307 57.223991 -25.676713 143.344 52.297478 -149.503041 -79.317041 -85.926882 108.94839 -46.662626 -76.086482 40.148986 177.071243 3.555516 -42.93794 -126.068866 -34.512063 -54.857922 63.346378 -5.350656 42.308388 -20.025924 28.955207 -147.101651 -39.31984 19.774101 -141.547257 -143.502464 -56.318777 73.465362 0.430517 38.54486 110.122918 83.440569 58.026041 -156.2046 129.43579 18.970484 83.082864 28.91105 -76.370356 26.978718 2.891992 -47.012295 -0.420214 -4.934871 46.223078 180.0 -1.921825 4.825545 -150.022756 70.432897 2.189668 -91.824695 -20.732142 -45.318465 -28.028289 -2.175182 48.8832 -158.270025 0.38343 -7.056954 0.598388 38.009548 -62.378368 -143.147263
1.6862 62.0149 0.6182 6.415726 -60.084131 -3.944351 -11.017017 14.905855 -142.879339 -0.456925 9.187614 148.094643 18.009961 22.021837 72.056517 -38.258219 5.011166 -105.917944 10.766634 -1.000635 -10.588646 12.491207 -1.960728 -17.773814 -149.075051 41.404882 155.925934 139.347532 -46.562187 152.687041 -39.437058 -23.633281 51.904805 5.974492 -25.251601 1.536144 -63.967913 46.56376 35.09355 -57.608499 6.468818 36.943073 -149.083857 -13.790912 127.712428 -167.264792 9.78082 107.038307 -173.399501 -6.828376 127.688678 88.658532 -52.471494 75.981601 2.070903 -28.927536 5.077997 95.540579 85.535837 -110.609517 -165.577642 -41.978064 -153.31433 -45.423435 34.52223 50.941496 151.452919 17.161865 -143.958347 15.63551 -67.752904 -41.932549 -68.638662 -2.032933 -159.251658 61.422916 65.830724 -31.942121 74.386137 43.431374 -43.860261 74.217564 45.414752 -80.938957 0.216158 -21.457088 -0.755555 114.636306 22.046028 -103.653745 173.949378 -7.873898 -130.419034 -12.373425 -21.986166 -25.221516 128.288607 29.420085 -142.428357 -39.214753 13.861371 8.979416 33.289822 -45.863482 3.49746 -19.701438 3.547356 37.963855 -20.942461 16.288924 -5.705545 -31.073692 -67.977918 36.175757 75.588093 2.865644 1.256844 -80.958587 -73.211816 -174.664741 -10.510094 8.650829 -5.69425 38.894189 -17.324745 -40.977841 -53.359496 17.071815 80.629854 61.654768 -4.523542 0.701772
2.8803 61.6766 1.3356 6.551138 -56.529059 -3.613445 -6.318148 17.042131 1.60599 1.480364 -8.791561 -2.566445 -0.402209 21.392075 -71.37848 32.533444 -12.515588 44.195846 27.295394 -3.979561 -16.285872 61.971745 17.551301 28.833009 -145.456922 8.4329 163.06015 168.911345 0.258685 175.068876 168.39016 12.364566 62.996045 -179.330716 2.713762 136.221173 -82.235098 45.830257 36.906151 38.770284 -23.132335 55.796511 5.954845 13.426349 6.507341 -3.130686 0.236702 -1.712322 -138.372793 0.364768 116.657012 -107.533039 22.217371 95.907065 5.742518 3.422596 -0.311476 160.745249 4.048595 137.270024 -164.580592 33.348946 -142.479902 -152.010981 32.577776 -143.309867 3.098236 -0.841743 -1.03071 -69.182421 16.024244 -23.531684 6.82099 15.584398 -106.814986 2.01084 -11.100887 20.970576 -3.550346 -18.906154 -9.115139 140.341529 22.100551 -108.072213 157.261764 12.883969 -107.691603 -119.758884 -64.687821 -81.514193 151.896902 12.754258 -123.417222 124.45971 -72.631611 -164.778507 -16.140884 -0.40141 -34.925375 53.676917 9.709464 39.352051 110.731543 69.175603 -100.533423 141.08255 48.626807 -130.873143 -5.353211 22.453945 8.438365 -85.593019 -54.711772 93.599593 11.276572 -68.275161 135.552869 -14.333152 -27.433542 66.811801 160.386782 67.757498 21.056263 -136.659225 55.056841 130.978466 49.559742 -51.361932 73.078739 165.820232 2.403172 167.017678
3.2353 60.655899999999995 1.7242 2.79812 -61.334358 3.634024 -1.580764 5.935329 -52.767776 3.596482 0.394889 52.63563 -8.092907 25.175812 -104.694719 38.032677 6.394758 70.95532 80.343796 -14.145174 -16.721141 147.779597 -7.032217 24.019939 -8.952342 53.089259 12.739635 -112.902381 37.009382 122.470637 -165.947827 8.288865 -95.810377 -4.840386 -3.242915 -12.691584 -177.881831 5.638099 106.016009 -86.555105 22.872256 -40.612532 -15.963106 35.850977 21.028729 110.862333 -57.26135 76.957436 -107.002931 28.50014 100.830755 -17.091876 33.186618 51.91981 0.473861 -14.027373 0.494426 5.7106 0.275998 14.324358 -137.360064 -7.01915 -102.334533 67.887976 20.025508 -17.459774 -7.079035 -26.475534 4.683158 103.534128 12.589303 179.249561 32.746207 59.531526 104.384572 -171.992971 -17.799848 -132.23002 100.03457 35.309001 -31.516942 23.422803 -34.801301 -37.713819 -175.364698 -27.651411 -135.634465 103.870724 -73.972284 119.885288 40.320499 49.145449 -33.583293 176.159774 0.383483 170.164797 6.170626 -6.852153 -32.366145 -179.144683 -6.441351 127.801133 22.172205 14.626414 -33.968467 -16.32355 25.318851 -3.304674 49.080983 26.523302 26.782959 -120.453213 -21.048429 131.071141 -37.616492 -68.741473 34.918796 124.955705 -46.750688 -130.226419 4.191556 0.678606 -5.45618 17.115112 -9.220712 62.50873 41.535645 35.809465 -83.137539 -143.893894 -60.23933 -50.475159
3.1782 61.9895 1.6636000000000002 2.841075 -62.464631 3.239791 -10.444354 2.496278 76.705999 3.722472 -11.702116 -70.062177 13.763 24.642158 110.481304 -25.611775 39.09167 -149.351288 120.380956 -11.585573 20.082774 -58.727435 19.119108 -33.327511 3.599838 26.641106 -8.599784 50.763381 -21.847252 31.396499 -93.953567 -10.045031 69.347363 36.373144 -76.350978 19.625189 -74.413806 61.581118 34.349361 12.375667 -66.102191 74.27263 -158.431052 -50.166629 121.389167 43.201644 -56.997256 -11.604289 87.631653 -63.174856 53.492739 -53.048905 75.454911 6.500652 -136.383319 11.181056 170.431741 -150.140439 -27.458258 160.828232 21.561794 10.158068 -3.140241 175.126331 7.548037 -155.09963 -2.986151 -1.236892 -8.931201 78.895332 44.17397 -149.557905 -92.332233 -75.050259 169.67076 16.279882 12.961863 6.698865 -85.171012 -53.017049 -51.339171 127.487252 -36.785992 -151.527788 106.055011 45.301318 -77.892641 85.247008 17.250947 -46.958805 175.310726 -33.700509 -133.872379 89.828329 26.315303 -71.194964 -34.428905 -59.637095 -33.684115 -153.78841 27.930887 173.622378 141.071879 26.2801 168.945329 6.528045 -55.290865 22.706353 -2.942945 15.384096 4.434948 -65.634251 -59.648521 -68.653151 8.635854 73.093602 163.91318 -131.042308 13.941826 175.405543 1.218096 1.715065 -1.602323 18.520233 -6.728572 70.722116 43.712416 30.457265 -125.554154 161.787675 -24.197531 -105.714632
2.7723 62.535 2.0969 1.058482 -62.162735 3.059474 -3.985876 4.72246 -105.931726 -2.138096 5.82573 113.168682 15.838774 16.151824 93.147135 -27.732365 29.588716 -136.07199 169.249306 -9.836635 84.88821 -9.592992 0.94345 -11.207876 -24.798068 -64.530957 -49.472216 -149.604956 5.901788 -161.580011 -166.000147 -64.777197 -86.131116 -19.747618 20.45734 3.599824 -136.566511 30.866423 93.98991 -110.485356 -75.009622 -112.530948 -124.22762 9.192393 110.596164 -171.819402 -36.911234 101.467023 12.98582 -8.465079 18.698905 -53.910244 -66.984858 -89.062804 16.683842 -1.443496 8.481641 154.406899 69.034315 -145.718555 12.004602 -41.289882 -11.87344 -156.971696 7.455153 -149.641898 16.769294 31.281658 -22.980073 72.879079 19.285873 -122.520606 -16.321224 40.57958 143.449389 161.354152 13.298811 -133.023325 -8.200372 -3.079435 5.212878 -57.476397 -55.625658 -9.576531 170.446786 -60.795465 -123.967208 146.452282 25.457341 -113.005332 2.208055 -2.424965 -3.087601 152.010253 -2.624856 -153.102684 -4.571557 -3.636426 -30.812258 -74.93445 47.945618 71.49152 -10.66166 43.587136 -23.213368 -20.436899 24.540325 23.216661 -97.118644 22.543529 -27.642087 89.724765 -34.794542 179.454927 -11.984256 -72.468892 -61.621757 20.38989 37.512328 -120.846497 0.313699 8.481187 -2.126039 20.738292 -9.777861 103.886644 58.094913 7.159923 131.722333 107.436803 4.701476 171.277858
